<?xml version="1.0" standalone="no"?>
<!DOCTYPE svg PUBLIC "-//W3C//DTD SVG 20010904//EN"
 "http://www.w3.org/TR/2001/REC-SVG-20010904/DTD/svg10.dtd">
<svg version="1.0" xmlns="http://www.w3.org/2000/svg"
 width="500.000000pt" height="500.000000pt" viewBox="0 0 500.000000 500.000000"
 preserveAspectRatio="xMidYMid meet">

<g transform="translate(0.000000,500.000000) scale(0.100000,-0.100000)"
fill="#000000" stroke="none">
<path d="M702 2698 l3 -523 118 -3 117 -3 0 93 c1 51 2 154 3 228 l2 135 178
3 177 2 0 105 0 105 -177 2 -178 3 0 60 0 60 228 3 227 2 0 125 0 125 -350 0
-350 0 2 -522z"/>
<path d="M2707 3213 c-4 -3 -7 -60 -7 -125 l0 -118 135 0 135 0 0 -400 0 -400
120 0 120 0 2 398 3 397 133 3 132 3 0 124 0 125 -383 0 c-211 0 -387 -3 -390
-7z"/>
<path d="M3763 3210 c-43 -9 -106 -44 -135 -76 -9 -11 -26 -40 -37 -64 -19
-41 -21 -65 -21 -260 l0 -216 240 1 240 0 0 -57 c0 -46 -5 -62 -26 -87 l-26
-31 -214 0 -214 0 0 -126 0 -126 268 4 c295 4 314 7 380 71 73 70 77 85 80
355 l4 242 -248 0 -247 0 6 47 c9 81 14 83 268 83 l219 0 0 125 0 125 -247 -1
c-137 -1 -267 -5 -290 -9z"/>
<path d="M1930 3140 l0 -70 255 0 255 0 0 -250 0 -250 69 0 69 0 7 175 c14
324 2 403 -68 445 -30 19 -52 20 -309 20 l-278 0 0 -70z"/>
<path d="M1905 2858 c-50 -27 -55 -44 -55 -200 l0 -148 154 0 c143 0 155 2
187 23 48 32 58 72 58 215 l-1 122 -162 0 c-98 0 -169 -5 -181 -12z"/>
<path d="M1510 2552 c0 -299 4 -317 71 -357 32 -19 52 -20 309 -20 l275 0 3
68 3 67 -256 0 -255 0 0 255 0 255 -75 0 -75 0 0 -268z"/>
<path d="M700 1955 l0 -165 1800 0 1800 0 0 165 0 165 -1800 0 -1800 0 0 -165z
m327 30 l50 -64 44 65 c61 90 74 84 74 -36 0 -78 -3 -95 -15 -95 -11 0 -16 17
-20 69 l-5 70 -39 -59 -39 -59 -21 26 c-11 14 -33 41 -48 59 l-27 34 0 -72
c-1 -58 -4 -73 -16 -73 -12 0 -15 18 -15 100 0 122 8 126 77 35z m933 50 c0
-12 -16 -15 -80 -15 -79 0 -80 0 -80 -25 0 -23 3 -25 51 -25 66 0 62 -24 -4
-28 -45 -3 -47 -5 -47 -33 l0 -29 80 0 c64 0 80 -3 80 -15 0 -12 -17 -15 -95
-15 l-95 0 0 100 0 100 95 0 c78 0 95 -3 95 -15z m713 3 c48 -25 66 -82 41
-133 -20 -43 -50 -55 -139 -55 l-75 0 0 100 0 100 76 0 c41 0 85 -5 97 -12z
m637 -88 c0 -93 -1 -100 -20 -100 -19 0 -20 7 -20 93 0 95 3 107 27 107 10 0
13 -23 13 -100z m724 3 c46 -81 53 -99 39 -102 -9 -2 -25 8 -36 23 -17 23 -25
26 -81 26 -57 0 -64 -2 -74 -25 -10 -22 -42 -36 -42 -19 0 4 23 49 51 100 35
66 56 94 69 94 12 0 35 -30 74 -97z"/>
<path d="M2530 1950 l0 -70 60 0 c70 0 100 21 100 70 0 49 -30 70 -100 70
l-60 0 0 -70z"/>
<path d="M3930 1970 c-11 -21 -20 -42 -20 -45 0 -7 85 -6 93 1 8 8 -31 84 -43
84 -5 0 -19 -18 -30 -40z"/>
</g>
</svg>
